<svg width="141" height="83" viewBox="0 0 141 83" fill="none" xmlns="http://www.w3.org/2000/svg">
<path d="M37.9645 4.94975C39.9171 2.99713 43.0829 2.99713 45.0355 4.94975L78.0502 37.9645C80.0029 39.9171 80.0029 43.0829 78.0503 45.0355L45.0355 78.0502C43.0829 80.0029 39.9171 80.0029 37.9645 78.0503L4.94975 45.0355C2.99713 43.0829 2.99713 39.9171 4.94975 37.9645L37.9645 4.94975Z" stroke="#DC5E74" stroke-width="2"/>
<path d="M40.816 42.784C40.816 43.296 40.784 43.8293 40.72 44.384H28.336C28.4213 45.4933 28.7733 46.3467 29.392 46.944C30.032 47.52 30.8107 47.808 31.728 47.808C33.0933 47.808 34.0427 47.232 34.576 46.08H40.4C40.1013 47.2533 39.5573 48.3093 38.768 49.248C38 50.1867 37.0293 50.9227 35.856 51.456C34.6827 51.9893 33.3707 52.256 31.92 52.256C30.1707 52.256 28.6133 51.8827 27.248 51.136C25.8827 50.3893 24.816 49.3227 24.048 47.936C23.28 46.5493 22.896 44.928 22.896 43.072C22.896 41.216 23.2693 39.5947 24.016 38.208C24.784 36.8213 25.8507 35.7547 27.216 35.008C28.5813 34.2613 30.1493 33.888 31.92 33.888C33.648 33.888 35.184 34.2507 36.528 34.976C37.872 35.7013 38.9173 36.736 39.664 38.08C40.432 39.424 40.816 40.992 40.816 42.784ZM35.216 41.344C35.216 40.4053 34.896 39.6587 34.256 39.104C33.616 38.5493 32.816 38.272 31.856 38.272C30.9387 38.272 30.16 38.5387 29.52 39.072C28.9013 39.6053 28.5173 40.3627 28.368 41.344H35.216ZM50.4548 47.776H57.6228V52H44.9828V29.536H50.4548V47.776ZM78.3448 42.784C78.3448 43.296 78.3128 43.8293 78.2488 44.384H65.8648C65.9501 45.4933 66.3021 46.3467 66.9208 46.944C67.5608 47.52 68.3394 47.808 69.2568 47.808C70.6221 47.808 71.5714 47.232 72.1048 46.08H77.9288C77.6301 47.2533 77.0861 48.3093 76.2968 49.248C75.5288 50.1867 74.5581 50.9227 73.3848 51.456C72.2114 51.9893 70.8994 52.256 69.4488 52.256C67.6994 52.256 66.1421 51.8827 64.7768 51.136C63.4114 50.3893 62.3448 49.3227 61.5768 47.936C60.8088 46.5493 60.4248 44.928 60.4248 43.072C60.4248 41.216 60.7981 39.5947 61.5448 38.208C62.3128 36.8213 63.3794 35.7547 64.7448 35.008C66.1101 34.2613 67.6781 33.888 69.4488 33.888C71.1768 33.888 72.7128 34.2507 74.0568 34.976C75.4008 35.7013 76.4461 36.736 77.1928 38.08C77.9608 39.424 78.3448 40.992 78.3448 42.784ZM72.7448 41.344C72.7448 40.4053 72.4248 39.6587 71.7848 39.104C71.1448 38.5493 70.3448 38.272 69.3848 38.272C68.4674 38.272 67.6888 38.5387 67.0488 39.072C66.4301 39.6053 66.0461 40.3627 65.8968 41.344H72.7448ZM81.4235 43.04C81.4235 41.2053 81.7648 39.5947 82.4475 38.208C83.1515 36.8213 84.1008 35.7547 85.2955 35.008C86.4902 34.2613 87.8235 33.888 89.2955 33.888C90.5542 33.888 91.6528 34.144 92.5915 34.656C93.5515 35.168 94.2875 35.84 94.7995 36.672V34.144H100.272V52H94.7995V49.472C94.2662 50.304 93.5195 50.976 92.5595 51.488C91.6208 52 90.5222 52.256 89.2635 52.256C87.8128 52.256 86.4902 51.8827 85.2955 51.136C84.1008 50.368 83.1515 49.2907 82.4475 47.904C81.7648 46.496 81.4235 44.8747 81.4235 43.04ZM94.7995 43.072C94.7995 41.7067 94.4155 40.6293 93.6475 39.84C92.9008 39.0507 91.9835 38.656 90.8955 38.656C89.8075 38.656 88.8795 39.0507 88.1115 39.84C87.3648 40.608 86.9915 41.6747 86.9915 43.04C86.9915 44.4053 87.3648 45.4933 88.1115 46.304C88.8795 47.0933 89.8075 47.488 90.8955 47.488C91.9835 47.488 92.9008 47.0933 93.6475 46.304C94.4155 45.5147 94.7995 44.4373 94.7995 43.072ZM110.982 37.12C111.622 36.1387 112.422 35.3707 113.382 34.816C114.342 34.24 115.409 33.952 116.582 33.952V39.744H115.078C113.713 39.744 112.689 40.0427 112.006 40.64C111.324 41.216 110.982 42.24 110.982 43.712V52H105.51V34.144H110.982V37.12ZM131.358 33.952C133.448 33.952 135.112 34.6347 136.35 36C137.608 37.344 138.238 39.2 138.238 41.568V52H132.798V42.304C132.798 41.1093 132.488 40.1813 131.87 39.52C131.251 38.8587 130.419 38.528 129.374 38.528C128.328 38.528 127.496 38.8587 126.878 39.52C126.259 40.1813 125.95 41.1093 125.95 42.304V52H120.478V34.144H125.95V36.512C126.504 35.7227 127.251 35.104 128.19 34.656C129.128 34.1867 130.184 33.952 131.358 33.952Z" fill="white"/>
</svg>
