<?xml version="1.0" encoding="utf-8"?><svg viewBox="0 0 194 56" xmlns="http://www.w3.org/2000/svg" xmlns:xlink="http://www.w3.org/1999/xlink"><style>:root>svg{display:none}:root>svg:target{display:block}</style><svg viewBox="0 0 162 51" id="airbnb" xmlns="http://www.w3.org/2000/svg"><g clip-path="url(#aa)"><path d="M85.136 13.535c0 1.8-1.462 3.248-3.276 3.248a3.255 3.255 0 01-3.275-3.248c0-1.8 1.411-3.249 3.275-3.249 1.865.05 3.276 1.5 3.276 3.249zm-13.503 6.548v.8s-1.562-2-4.887-2c-5.491 0-9.774 4.148-9.774 9.896 0 5.698 4.232 9.897 9.774 9.897 3.376 0 4.887-2.05 4.887-2.05v.85c0 .4.303.699.705.699h4.08V19.38h-4.08a.721.721 0 00-.705.702zm0 12.045c-.755 1.1-2.267 2.05-4.08 2.05-3.225 0-5.694-2-5.694-5.399s2.469-5.398 5.693-5.398c1.764 0 3.376 1 4.08 2.05v6.697zm7.81-12.746h4.835v18.794h-4.836V19.382zm72.248-.5c-3.326 0-4.888 2-4.888 2V10.336h-4.836v27.84h4.081c.403 0 .705-.35.705-.7v-.849s1.562 2.05 4.887 2.05c5.492 0 9.774-4.198 9.774-9.896 0-5.699-4.282-9.899-9.723-9.899zm-.806 15.245c-1.865 0-3.326-.948-4.082-2.049V25.38c.756-1 2.368-2.049 4.082-2.049 3.224 0 5.693 2 5.693 5.398 0 3.4-2.469 5.398-5.693 5.398zm-11.437-7.097v11.196h-4.837V27.58c0-3.099-1.008-4.349-3.727-4.349-1.46 0-2.972.75-3.931 1.85v13.096h-4.836V19.383h3.828c.403 0 .706.35.706.7v.8c1.411-1.45 3.274-2 5.138-2 2.117 0 3.88.6 5.291 1.8 1.712 1.4 2.368 3.198 2.368 6.348zm-29.071-8.148c-3.325 0-4.887 2-4.887 2V10.336h-4.837v27.84h4.081c.403 0 .705-.35.705-.7v-.849s1.563 2.05 4.887 2.05c5.492 0 9.775-4.198 9.775-9.896.05-5.7-4.232-9.899-9.724-9.899zm-.807 15.245c-1.864 0-3.324-.948-4.08-2.049V25.38c.756-1 2.368-2.049 4.08-2.049 3.226 0 5.694 2 5.694 5.398 0 3.4-2.468 5.398-5.694 5.398zM96.471 18.882c1.461 0 2.217.25 2.217.25v4.449s-4.03-1.35-6.55 1.5v13.145h-4.837V19.382h4.082c.403 0 .705.35.705.7v.8c.908-1.05 2.872-2 4.383-2zm-50.23 17.595c-.252-.6-.504-1.25-.756-1.8-.403-.9-.806-1.75-1.158-2.549l-.05-.05A519.336 519.336 0 0033.14 9.487l-.15-.3a97.939 97.939 0 01-1.209-2.35c-.504-.9-1.008-1.85-1.814-2.75C28.356 2.089 26.038.989 23.57.989c-2.52 0-4.787 1.1-6.449 3-.756.898-1.31 1.848-1.814 2.749-.393.787-.796 1.57-1.208 2.349l-.152.3c-3.88 7.497-7.658 15.095-11.134 22.592l-.05.1c-.353.8-.757 1.65-1.16 2.548a32.8 32.8 0 00-.755 1.8c-.655 1.849-.857 3.598-.604 5.398a10.638 10.638 0 006.55 8.298c1.31.55 2.67.8 4.08.8.403 0 .907-.05 1.31-.1 1.663-.2 3.376-.75 5.039-1.7 2.066-1.15 4.03-2.798 6.247-5.197 2.217 2.399 4.232 4.048 6.247 5.198 1.664.95 3.376 1.498 5.039 1.698.403.051.907.1 1.31.1 1.411 0 2.821-.249 4.08-.8 3.528-1.4 5.996-4.598 6.55-8.297.4-1.749.2-3.497-.455-5.347zm-22.722 2.599c-2.72-3.4-4.485-6.598-5.089-9.296-.251-1.15-.302-2.15-.15-3.05.1-.8.403-1.5.806-2.1.957-1.348 2.57-2.198 4.434-2.198 1.864 0 3.527.8 4.434 2.199.403.6.705 1.3.806 2.1.151.9.1 1.949-.151 3.049-.606 2.648-2.37 5.847-5.09 9.296zm20.102 2.349c-.353 2.599-2.117 4.849-4.585 5.849-1.209.499-2.52.65-3.828.499-1.26-.15-2.52-.55-3.83-1.3-1.813-1-3.627-2.548-5.743-4.848 3.325-4.048 5.34-7.748 6.096-11.046.353-1.55.404-2.949.252-4.25a8.077 8.077 0 00-1.36-3.398c-1.563-2.25-4.183-3.549-7.105-3.549-2.92 0-5.541 1.35-7.103 3.549a8.076 8.076 0 00-1.36 3.399c-.202 1.3-.152 2.75.251 4.25.756 3.297 2.822 7.046 6.096 11.095-2.066 2.299-3.93 3.849-5.744 4.849-1.31.75-2.569 1.15-3.828 1.299a8.12 8.12 0 01-3.83-.5c-2.468-1-4.231-3.25-4.584-5.848-.15-1.25-.05-2.499.454-3.898.15-.5.403-1 .655-1.6.353-.8.755-1.65 1.158-2.5l.051-.099c3.476-7.448 7.204-15.045 11.084-22.442l.15-.3c.404-.75.808-1.55 1.21-2.3.403-.8.856-1.55 1.411-2.2 1.058-1.198 2.468-1.848 4.03-1.848 1.563 0 2.973.65 4.031 1.849.555.651 1.008 1.401 1.411 2.2.404.75.807 1.55 1.209 2.299l.152.3a659.546 659.546 0 0111.033 22.492v.05c.404.801.756 1.7 1.16 2.5.251.6.503 1.099.654 1.6.402 1.297.553 2.548.352 3.847z"/></g><defs><clipPath id="aa"><path transform="translate(.113 .989)" d="M0 0h161.323v49.933H0z"/></clipPath></defs></svg><svg viewBox="0 0 154 47" id="amazon" xmlns="http://www.w3.org/2000/svg"><g clip-path="url(#ba)" fill-rule="evenodd" clip-rule="evenodd"><path d="M95.483 36.558C86.588 43.112 73.65 46.604 62.49 46.604c-15.633 0-29.648-5.748-40.322-15.31-.808-.752-.108-1.773.917-1.182 11.482 6.661 25.66 10.637 40.322 10.637 9.865 0 20.754-2.042 30.78-6.286 1.51-.59 2.75 1.021 1.294 2.095z"/><path d="M99.202 32.315c-1.132-1.45-7.547-.699-10.404-.323-.862.108-1.024-.644-.216-1.182 5.122-3.599 13.477-2.524 14.447-1.343.971 1.182-.269 9.563-5.067 13.538-.755.59-1.455.268-1.132-.537 1.078-2.686 3.504-8.65 2.372-10.154zM88.96 5.562V2.07c0-.537.377-.86.862-.86h15.633c.485 0 .917.376.917.86v2.954c0 .484-.432 1.129-1.186 2.203L97.1 18.723c3.019-.053 6.199.376 8.894 1.88.593.323.755.86.809 1.343v3.707c0 .537-.539 1.128-1.132.806-4.798-2.525-11.213-2.793-16.496.054-.539.268-1.132-.269-1.132-.806V22.16c0-.537 0-1.504.593-2.363l9.38-13.377h-8.14c-.485 0-.916-.376-.916-.86zm-56.98 21.65h-4.744c-.43-.055-.808-.377-.862-.807V2.124c0-.484.431-.86.916-.86h4.42c.486 0 .81.376.863.806v3.17h.108C33.813 2.176 36.023.726 38.934.726c2.965 0 4.852 1.45 6.146 4.512C46.212 2.177 48.853.727 51.656.727c1.995 0 4.151.806 5.499 2.686 1.51 2.041 1.186 4.996 1.186 7.628v15.364c0 .484-.431.86-.917.86h-4.69c-.485-.054-.862-.43-.862-.86V13.512c0-1.02.108-3.599-.108-4.566-.377-1.612-1.402-2.095-2.803-2.095-1.132 0-2.372.752-2.857 1.988-.485 1.235-.431 3.277-.431 4.673v12.893c0 .484-.432.86-.917.86h-4.744c-.485-.054-.862-.43-.862-.86V13.512c0-2.686.431-6.715-2.911-6.715-3.396 0-3.288 3.868-3.288 6.715v12.893c-.054.43-.432.806-.97.806zM119.848.726c7.062 0 10.89 6.016 10.89 13.698 0 7.414-4.205 13.323-10.89 13.323-6.9 0-10.673-6.016-10.673-13.537-.054-7.575 3.773-13.484 10.673-13.484zm0 4.996c-3.503 0-3.719 4.78-3.719 7.736 0 2.954-.054 9.293 3.666 9.293 3.665 0 3.881-5.103 3.881-8.219 0-2.041-.108-4.512-.701-6.446-.539-1.72-1.617-2.364-3.127-2.364zm20 21.488h-4.744c-.485-.054-.862-.43-.862-.86V2.017a.93.93 0 01.916-.806h4.42c.432 0 .755.323.863.699v3.706h.108c1.347-3.33 3.18-4.888 6.468-4.888 2.103 0 4.205.752 5.553 2.847 1.24 1.934 1.24 5.21 1.24 7.575v15.31c-.054.43-.432.752-.917.752h-4.743c-.432-.054-.809-.376-.863-.752V13.244c0-2.686.323-6.554-2.965-6.554-1.132 0-2.21.752-2.749 1.934-.647 1.504-.755 2.954-.755 4.62v13.108a.986.986 0 01-.97.86zm-63.34-11.604c0 1.827.053 3.385-.863 5.05-.755 1.343-1.94 2.149-3.288 2.149-1.833 0-2.911-1.397-2.911-3.438 0-4.03 3.611-4.781 7.061-4.781v1.02zm4.797 11.55a.977.977 0 01-1.132.108c-1.563-1.29-1.887-1.934-2.75-3.17-2.587 2.633-4.474 3.438-7.816 3.438-3.989 0-7.115-2.47-7.115-7.36 0-3.867 2.102-6.446 5.067-7.735 2.587-1.128 6.2-1.343 8.948-1.665v-.591c0-1.129.108-2.472-.593-3.439-.593-.859-1.67-1.235-2.641-1.235-1.833 0-3.45.913-3.827 2.847-.108.43-.378.86-.809.86l-4.582-.484c-.378-.107-.809-.376-.7-.967C64.431 2.177 69.444.512 73.973.512c2.318 0 5.337.59 7.17 2.364 2.317 2.148 2.102 5.05 2.102 8.165v7.36c0 2.202.916 3.17 1.779 4.405.323.43.377.967 0 1.235-1.025.806-2.75 2.31-3.72 3.116zm-67.06-11.55c0 1.827.054 3.385-.862 5.05-.755 1.343-1.941 2.149-3.289 2.149-1.833 0-2.91-1.397-2.91-3.438 0-4.03 3.61-4.781 7.061-4.781v1.02zm4.744 11.55a.977.977 0 01-1.132.108c-1.564-1.29-1.887-1.934-2.75-3.17-2.587 2.633-4.474 3.438-7.816 3.438-3.99 0-7.116-2.47-7.116-7.36 0-3.867 2.103-6.446 5.068-7.735 2.587-1.128 6.199-1.343 8.948-1.665v-.591c0-1.129.108-2.472-.593-3.439-.593-.859-1.671-1.235-2.641-1.235-1.833 0-3.45.913-3.828 2.847-.108.43-.377.86-.808.86L1.739 8.73c-.378-.107-.809-.376-.701-.967C2.116 2.177 7.129.512 11.658.512c2.317 0 5.336.59 7.17 2.364 2.317 2.148 2.101 5.05 2.101 8.165v7.36c0 2.202.917 3.17 1.78 4.405.323.43.377.967 0 1.235-1.025.806-2.75 2.31-3.72 3.116z"/></g><defs><clipPath id="ba"><path transform="rotate(-180 76.906 23.302)" d="M0 0h153.641v46.092H0z"/></clipPath></defs></svg><svg viewBox="0 0 194 40" id="facebook" xmlns="http://www.w3.org/2000/svg"><path d="M100.101 19.412c-1.597 0-2.747.526-3.915 1.061v12.114c1.118.107 1.76.107 2.82.107 3.832 0 4.357-1.762 4.357-4.221v-5.786c0-1.816-.6-3.275-3.262-3.275zm-25.452-.66c-2.659 0-3.266 1.464-3.266 3.279v1.02h6.529v-1.02c0-1.815-.607-3.28-3.263-3.28zM25.344 31.36c0 1.435.675 2.18 2.164 2.18 1.597 0 2.543-.522 3.71-1.06v-2.873h-3.494c-1.654 0-2.38.31-2.38 1.753zm99.516-11.948c-2.664 0-3.587 1.46-3.587 3.275v6.628c0 1.821.923 3.284 3.587 3.284 2.656 0 3.586-1.463 3.586-3.284v-6.628c-.001-1.816-.931-3.275-3.586-3.275zM12.291 38.792h-7.83v-19.02H.55V13.22h3.913V9.283c0-5.347 2.207-8.526 8.483-8.526h5.225v6.555h-3.266c-2.443 0-2.604.916-2.604 2.626l-.01 3.28h5.916l-.692 6.554h-5.224v19.02zm26.758.05h-6.526l-.282-1.657c-2.979 1.656-5.638 1.925-7.392 1.925-4.786 0-7.333-3.209-7.333-7.646 0-5.235 2.972-7.103 8.29-7.103h5.412v-1.132c0-2.672-.306-3.456-4.4-3.456h-6.695l.654-6.554h7.318c8.984 0 10.954 2.848 10.954 10.063v15.56zm22.19-18.589c-4.061-.699-5.227-.852-7.181-.852-3.51 0-4.57.777-4.57 3.768v5.658c0 2.99 1.06 3.771 4.57 3.771 1.954 0 3.12-.156 7.18-.857v6.392c-3.556.8-5.873 1.01-7.832 1.01-8.405 0-11.746-4.435-11.746-10.844v-4.591c0-6.415 3.34-10.859 11.746-10.859 1.959 0 4.276.211 7.833 1.015v6.39zM85.74 28.3H71.382v.528c0 2.99 1.062 3.771 4.57 3.771 3.154 0 5.08-.156 9.133-.857v6.392c-3.91.8-5.947 1.01-9.781 1.01-8.407 0-11.75-4.435-11.75-10.844v-5.25c0-5.607 2.48-10.2 11.094-10.2 8.615 0 11.092 4.54 11.092 10.2v5.25zm25.451.12c0 6.195-1.764 10.713-12.45 10.713-3.86 0-6.123-.34-10.382-.998V2.726l7.827-1.31V13.8c1.691-.63 3.88-.951 5.873-.951 7.827 0 9.131 3.522 9.131 9.182v6.388h.001zm25.09.136c0 5.343-2.198 10.526-11.395 10.526-9.202 0-11.441-5.183-11.441-10.526v-5.16c0-5.346 2.239-10.53 11.441-10.53 9.197 0 11.395 5.184 11.395 10.53v5.16zm25.072 0c0 5.343-2.201 10.526-11.396 10.526-9.201 0-11.441-5.183-11.441-10.526v-5.16c0-5.346 2.24-10.53 11.441-10.53 9.195 0 11.396 5.184 11.396 10.53v5.16zm25.731 10.237H178.6l-7.175-12.021v12.02h-7.83V2.726l7.83-1.31v23.218L178.6 13.22h8.484l-7.834 12.456 7.834 13.117zm-37.154-19.38c-2.659 0-3.581 1.46-3.581 3.275v6.628c0 1.821.922 3.284 3.581 3.284 2.656 0 3.596-1.463 3.596-3.284v-6.628c0-1.816-.94-3.275-3.596-3.275zm41.622 14.894c1.319 0 2.368 1.079 2.368 2.426 0 1.368-1.05 2.435-2.378 2.435-1.321 0-2.392-1.067-2.392-2.435 0-1.347 1.071-2.426 2.392-2.426h.01zm-.01.377c-1.062 0-1.931.917-1.931 2.05 0 1.152.87 2.057 1.941 2.057 1.072.01 1.929-.905 1.929-2.047 0-1.142-.857-2.06-1.929-2.06h-.01zm-.45 3.461h-.429v-2.707c.225-.032.44-.063.762-.063.408 0 .675.086.839.204.158.12.243.302.243.56 0 .357-.234.572-.523.659v.02c.235.044.395.258.45.656.062.421.128.582.17.67h-.45c-.064-.088-.129-.335-.183-.691-.063-.344-.236-.474-.58-.474h-.298v1.166h-.001zm0-1.498h.312c.352 0 .652-.13.652-.465 0-.237-.17-.474-.652-.474-.141 0-.238.011-.312.02v.919z"/></svg><svg viewBox="0 0 169 56" id="google" xmlns="http://www.w3.org/2000/svg"><g clip-path="url(#da)"><path d="M20.727.995h1.497c5.196.112 10.307 2.193 13.978 5.876-1.355 1.378-2.74 2.7-4.066 4.077-2.062-1.855-4.547-3.29-7.258-3.795-4.01-.844-8.33-.085-11.69 2.193-3.672 2.39-6.157 6.439-6.693 10.769-.593 4.274.621 8.773 3.417 12.09 2.682 3.234 6.777 5.258 11.013 5.399 3.953.225 8.076-.984 10.956-3.74 2.26-1.94 3.304-4.892 3.643-7.76-4.687 0-9.375.028-14.063 0v-5.792h19.74c1.016 6.214-.453 13.215-5.197 17.658-3.162 3.149-7.54 5.005-12.001 5.37-4.32.422-8.782-.394-12.623-2.474-4.603-2.447-8.274-6.58-10.081-11.444-1.694-4.47-1.723-9.532-.141-14.03 1.44-4.106 4.207-7.733 7.765-10.264 3.417-2.502 7.568-3.88 11.804-4.133zm113.238 1.461h6.043v40.152c-2.005 0-4.038.028-6.043-.028.028-13.356 0-26.74 0-40.124zM54.642 16.374c3.728-.703 7.766.084 10.844 2.306 2.795 1.968 4.744 5.06 5.337 8.435.763 3.908-.198 8.182-2.74 11.275-2.738 3.459-7.228 5.314-11.605 5.033-4.01-.225-7.907-2.221-10.28-5.483-2.682-3.599-3.331-8.547-1.863-12.765 1.468-4.527 5.62-7.986 10.307-8.8zm.847 5.342a7.596 7.596 0 00-3.953 2.503c-2.74 3.261-2.57 8.576.452 11.612 1.722 1.744 4.32 2.56 6.72 2.081 2.231-.393 4.18-1.884 5.253-3.852 1.864-3.346 1.327-7.957-1.525-10.572-1.835-1.687-4.518-2.39-6.947-1.772zm29.086-5.342c4.264-.815 8.924.366 12.115 3.346 5.196 4.64 5.76 13.328 1.327 18.67-2.683 3.374-7.032 5.23-11.324 5.033-4.094-.112-8.133-2.137-10.561-5.483-2.74-3.683-3.332-8.744-1.78-13.046 1.554-4.387 5.62-7.733 10.223-8.52zm.847 5.342a7.727 7.727 0 00-3.953 2.475c-2.711 3.205-2.598 8.435.31 11.5 1.723 1.828 4.406 2.727 6.89 2.221 2.203-.422 4.18-1.884 5.253-3.852 1.836-3.374 1.3-7.985-1.581-10.6-1.836-1.687-4.518-2.362-6.919-1.744zm24.54-3.711c3.247-2.025 7.568-2.587 11.069-.844 1.102.478 2.005 1.294 2.881 2.11.028-.76 0-1.547.028-2.335 1.892.029 3.784 0 5.704.029v24.8c-.028 3.739-.988 7.704-3.699 10.431-2.965 3.009-7.512 3.936-11.606 3.318-4.377-.647-8.189-3.824-9.884-7.845 1.695-.815 3.474-1.462 5.224-2.221.989 2.305 2.994 4.274 5.507 4.724 2.513.45 5.422-.17 7.06-2.25 1.751-2.137 1.751-5.061 1.666-7.676-1.299 1.265-2.796 2.39-4.603 2.812-3.925 1.096-8.246-.253-11.267-2.896-3.05-2.643-4.857-6.72-4.688-10.77.085-4.583 2.683-8.997 6.608-11.387zm5.845 3.599c-1.722.281-3.332 1.237-4.433 2.559-2.655 3.149-2.655 8.182.028 11.275 1.525 1.828 3.982 2.84 6.354 2.587 2.231-.225 4.292-1.631 5.393-3.571 1.864-3.29 1.554-7.76-.96-10.629-1.553-1.771-4.038-2.643-6.382-2.221zm31.458-2.165c3.389-3.15 8.613-4.218 12.962-2.559 4.123 1.547 6.749 5.455 8.076 9.476-6.128 2.53-12.227 5.033-18.355 7.563.847 1.603 2.146 3.065 3.897 3.656 2.457.871 5.394.562 7.455-1.069.819-.618 1.468-1.434 2.09-2.221 1.553 1.04 3.106 2.053 4.659 3.093-2.203 3.29-5.902 5.595-9.884 5.96-4.405.535-9.092-1.152-11.945-4.582-4.687-5.399-4.235-14.453 1.045-19.317zm3.022 5.202c-.96 1.377-1.356 3.065-1.327 4.723 4.094-1.687 8.189-3.374 12.283-5.089-.677-1.574-2.315-2.53-3.981-2.784-2.683-.477-5.479.957-6.975 3.15z"/></g><defs><clipPath id="da"><path transform="translate(0 .989)" d="M0 0h168.303v54.699H0z"/></clipPath></defs></svg><svg viewBox="0 0 132 51" id="grab" xmlns="http://www.w3.org/2000/svg"><path d="M104.461 15.902V0h3.244v13.67c-.898.451-2.121 1.304-3.244 2.232zm-5.641 4.79c.998-1.204 2.022-2.407 3.245-3.436V0H98.82v20.692zM61.232 33.334c0 4.238 1.672 8.277 4.742 11.362 3.045 3.06 7.064 4.765 11.307 4.765 1.797 0 3.643-.376 4.941-1.028v-3.26c-1.522.651-3.369 1.028-4.941 1.028-6.939 0-12.78-5.87-12.78-12.842v-2.935c0-6.973 5.866-12.842 12.78-12.842 3.444 0 6.664 1.33 9.06 3.738 2.396 2.407 3.719 5.643 3.719 9.104v19.062h3.244V29.797c-.2-4.163-1.972-8.051-4.967-10.96-3.02-2.91-6.938-4.515-11.056-4.515-4.219 0-8.237 1.68-11.307 4.765-3.045 3.06-4.742 7.098-4.742 11.362v2.885zm48.57-7.826c1.473-1.48 3.369-2.307 5.241-2.307 4.019 0 7.139 3.16 7.139 7.173v2.935c0 4.038-3.145 7.173-7.139 7.173-1.946 0-3.818-1.079-5.291-3.01-1.298-1.705-2.146-4.038-2.271-6.12l-2.621 3.26c.524 2.459 1.797 4.842 3.619 6.497 1.872 1.706 4.218 2.659 6.564 2.659 5.741 0 10.408-4.69 10.408-10.434v-2.935c0-2.734-1.098-5.342-3.095-7.324-1.996-2.006-4.592-3.11-7.313-3.11-1.722 0-4.442.627-7.687 3.562-.874.878-2.92 2.934-4.168 4.389-2.097 2.308-5.117 5.744-7.712 9.23v5.092c2.87-3.712 4.517-5.794 7.238-8.93 2.396-2.859 5.391-6.295 7.088-7.8zm-76.674-6.145v-3.862c-2.945-1.58-6.14-2.283-10.383-2.283-4.342 0-8.46 1.605-11.58 4.49-3.145 2.91-4.867 6.722-4.867 10.785v1.053c0 8.428 6.713 15.275 15 15.275 6.714 0 9.484-2.207 10.183-2.91v-9.806H20.5v3.26h7.937v4.916h-.025c-1.023.402-3.145 1.254-7.113 1.254-3.145 0-6.115-1.229-8.311-3.486-2.222-2.257-3.42-5.267-3.42-8.528v-1.053c0-6.496 6.04-12.014 13.203-12.014 4.917.025 7.863.852 10.358 2.91zm23.661 3.838c1.223 0 2.272.2 3.12.602a19.07 19.07 0 011.423-2.86c-.874-.627-2.995-1.028-4.543-1.028-5.915 0-10.383 4.49-10.383 10.459v19.062h3.245V30.374c0-4.214 2.92-7.173 7.138-7.173zM.657 28.493v1.053c0 5.669 2.146 10.936 6.015 14.874 3.869 3.913 9.06 6.07 14.6 6.07 4.469 0 8.412-1.004 11.757-3.01 2.745-1.656 3.968-3.311 4.068-3.461V26.46H20.499v3.26h13.353v13.32c-1.572 1.58-5.291 4.213-12.554 4.213-4.742 0-9.135-1.83-12.38-5.142-3.22-3.285-4.992-7.75-4.992-12.54v-1.054c0-4.54 2.022-9.055 5.566-12.39 3.62-3.412 8.337-5.293 13.278-5.293 4.618 0 7.813.703 10.383 2.283V9.43c-2.695-1.154-5.915-1.656-10.408-1.656-11.98 0-22.088 9.481-22.088 20.718zm86.981 20.943V30.374c0-5.87-4.567-10.46-10.407-10.46-2.72 0-5.317 1.104-7.313 3.111-1.997 2.007-3.095 4.615-3.095 7.324v2.934c0 5.669 4.767 10.434 10.383 10.434 1.547 0 3.644-.376 4.941-1.454v-3.386c-1.272 1.028-3.094 1.63-4.941 1.63-3.994 0-7.139-3.16-7.139-7.173v-2.935c0-4.038 3.145-7.173 7.139-7.173 4.018 0 7.138 3.16 7.138 7.173v19.062h3.294v-.025zM56.79 17.532c2.197 0 4.118.477 5.84 1.455.8-1.028 1.623-1.831 2.247-2.458-1.822-1.405-4.917-2.258-8.062-2.258-4.517 0-8.61 1.63-11.53 4.616-2.896 2.934-4.493 7.023-4.493 11.512v19.062h3.244V30.4c-.025-7.575 5.217-12.867 12.754-12.867zm69.561 1.505c-3.045-3.06-7.064-4.765-11.307-4.765-3.095 0-6.189 1.153-7.912 2.307-3.544 2.358-6.439 4.941-11.68 11.738v4.891c4.442-5.819 8.635-10.384 11.83-12.917 2.097-1.68 5.067-2.734 7.762-2.734 6.939 0 12.779 5.894 12.779 12.842v2.935c0 3.436-1.348 6.671-3.794 9.104-2.421 2.408-5.615 3.737-8.985 3.737-5.69 0-10.707-3.937-12.055-9.28l-2.296 2.784c1.672 5.619 7.712 9.757 14.351 9.757 4.243 0 8.237-1.705 11.307-4.765 3.045-3.085 4.742-7.099 4.742-11.362v-2.935c0-4.239-1.697-8.277-4.742-11.337z"/></svg><svg viewBox="0 0 152 41" id="netflix" xmlns="http://www.w3.org/2000/svg"><g clip-path="url(#fa)"><path d="M143.28 19.59l8.096 21.293c-2.386-.338-4.771-.762-7.199-1.144l-4.56-11.765-4.686 10.793c-2.3-.382-4.559-.509-6.859-.805l8.222-18.625L128.836.248h6.903l4.175 10.665L144.389.248h6.986L143.28 19.59zM123.386.248h-6.264v36.91c2.045.128 4.175.212 6.264.465V.248zm-11.675 36.486c-5.709-.38-11.419-.717-17.255-.846V.248h6.39v29.63c3.665.084 7.328.38 10.865.548v6.308zM87.638 14.683v6.349h-8.734v14.433h-6.305V.248h17.895v6.349H78.905v8.086h8.734-.001zM61.86 6.597v29.207c-2.13 0-4.302 0-6.391.084V6.597h-6.604V.248h19.64v6.349H61.86zM41.964 21.369c-2.811 0-6.135 0-8.521.129v9.438c3.75-.255 7.498-.55 11.29-.677v6.095l-17.68 1.398V.248h17.679v6.349h-11.29v8.55c2.472 0 6.264-.127 8.522-.127v6.35-.001zM6.557 17.813v22.18a143.53 143.53 0 00-6.517.89V.248h6.093l8.307 23.07V.248h6.391v38.01c-2.257.382-4.559.51-6.987.847L6.557 17.813z"/></g><defs><clipPath id="fa"><path transform="translate(.04 .207)" d="M0 0h151.336v40.715H0z"/></clipPath></defs></svg></svg>